<?xml version="1.0" encoding="UTF-8" standalone="no"?>
<svg
   id="Layer_1"
   data-name="Layer 1"
   viewBox="0 0 24 24"
   width="512"
   height="512"
   version="1.1"
   sodipodi:docname="piquenique1.svg"
   inkscape:version="1.2-beta (1b65182ce9, 2022-04-05)"
   xmlns:inkscape="http://www.inkscape.org/namespaces/inkscape"
   xmlns:sodipodi="http://sodipodi.sourceforge.net/DTD/sodipodi-0.dtd"
   xmlns="http://www.w3.org/2000/svg"
   xmlns:svg="http://www.w3.org/2000/svg">
  <defs
     id="defs14961" />
  <sodipodi:namedview
     id="namedview14959"
     pagecolor="#ffffff"
     bordercolor="#000000"
     borderopacity="0.25"
     inkscape:pageshadow="2"
     inkscape:pageopacity="0.0"
     inkscape:pagecheckerboard="0"
     inkscape:deskcolor="#d1d1d1"
     showgrid="false"
     inkscape:zoom="1.5898438"
     inkscape:cx="256"
     inkscape:cy="256.3145"
     inkscape:window-width="1920"
     inkscape:window-height="1001"
     inkscape:window-x="-9"
     inkscape:window-y="-9"
     inkscape:window-maximized="1"
     inkscape:current-layer="Layer_1" />
  <path
     d="M23.283,9.034A3.008,3.008,0,0,0,20.93,8C19.5-2.6,4.492-2.591,3.07,8A3.018,3.018,0,0,0,.046,11.425l1.059,7.424A6.024,6.024,0,0,0,7.037,24h9.957a6.025,6.025,0,0,0,5.932-5.151l1.059-7.424A3,3,0,0,0,23.283,9.034ZM12,2a7,7,0,0,1,6.911,6H5.089A7,7,0,0,1,12,2Zm6.2,8L14.35,13.857a.5.5,0,0,1-.706,0L9.792,10Zm2.746,8.565A4.018,4.018,0,0,1,16.994,22H7.037a4.018,4.018,0,0,1-3.955-3.435L2.023,11.142A1,1,0,0,1,3.012,10H6.967l5.265,5.271a2.493,2.493,0,0,0,3.531,0L21.026,10a1,1,0,0,1,.982,1.14Z"
     id="path14956"
     style="fill:#ffffff" />
</svg>
