<?xml version="1.0" encoding="UTF-8" standalone="no"?>
<!-- Generator: Adobe Illustrator 25.0.0, SVG Export Plug-In . SVG Version: 6.00 Build 0)  -->

<svg
   version="1.1"
   id="Capa_1"
   x="0px"
   y="0px"
   viewBox="0 0 513.70475 513.74855"
   xml:space="preserve"
   width="135.455mm"
   height="135.46655mm"
   sodipodi:docname="procurar4.svg"
   inkscape:version="1.2-beta (1b65182ce9, 2022-04-05)"
   xmlns:inkscape="http://www.inkscape.org/namespaces/inkscape"
   xmlns:sodipodi="http://sodipodi.sourceforge.net/DTD/sodipodi-0.dtd"
   xmlns="http://www.w3.org/2000/svg"
   xmlns:svg="http://www.w3.org/2000/svg"><defs
   id="defs25" /><sodipodi:namedview
   id="namedview23"
   pagecolor="#ffffff"
   bordercolor="#000000"
   borderopacity="0.25"
   inkscape:pageshadow="2"
   inkscape:pageopacity="0.0"
   inkscape:pagecheckerboard="0"
   inkscape:deskcolor="#d1d1d1"
   showgrid="false"
   inkscape:zoom="1.5332031"
   inkscape:cx="110.22675"
   inkscape:cy="256"
   inkscape:window-width="1920"
   inkscape:window-height="1001"
   inkscape:window-x="-9"
   inkscape:window-y="-9"
   inkscape:window-maximized="1"
   inkscape:current-layer="Capa_1"
   inkscape:document-units="mm" />
<g
   id="g20"
   transform="translate(-0.62287905,1.3087258)"
   style="fill:#0086ff;stroke:#f4f4f4;stroke-opacity:1;fill-opacity:1"
   inkscape:label="g20">
	<path
   d="M 504.352,459.061 404.917,359.584 C 479.319,260.157 459.032,119.24 359.605,44.838 260.178,-29.564 119.261,-9.277 44.859,90.15 c -74.402,99.427 -54.115,240.344 45.312,314.746 79.868,59.766 189.565,59.766 269.434,0 l 99.477,99.477 c 12.501,12.501 32.769,12.501 45.269,0 12.501,-12.501 12.501,-32.769 0,-45.269 z M 225.717,385.696 c -88.366,0 -160,-71.634 -160,-160 0,-88.366 71.634,-160 160,-160 88.366,0 160,71.634 160,160 -0.094,88.326 -71.673,159.906 -160,160 z"
   id="path18"
   style="fill:#0086ff;stroke:#f4f4f4;stroke-opacity:1;fill-opacity:1" />
</g>















</svg>
